<svg xmlns="http://www.w3.org/2000/svg" viewBox="0 0 512 512">
  <defs>
    <linearGradient id="copperGradient" x1="0%" y1="0%" x2="100%" y2="100%">
      <stop offset="0%" style="stop-color:#FFD700;stop-opacity:1" />
      <stop offset="100%" style="stop-color:#B8860B;stop-opacity:1" />
    </linearGradient>
  </defs>
  <rect width="512" height="512" rx="128" fill="#111111"/>
  <path d="M360 200 C360 150 320 120 256 120 C192 120 160 150 160 190 L220 190 C220 170 235 160 256 160 C280 160 295 170 295 190 C295 210 280 220 240 230 L210 238 C150 255 130 290 130 340 C130 400 180 432 256 432 C330 432 370 395 370 340 L310 340 C310 365 295 385 256 385 C225 385 200 370 200 345 C200 325 215 310 260 300 L290 292 C340 280 360 250 360 200 Z" fill="url(#copperGradient)"/>
</svg>
